<?xml version="1.0" encoding="UTF-8"?>
<svg id="Layer_1" data-name="Layer 1" xmlns="http://www.w3.org/2000/svg" viewBox="0 0 812.69 266">
  <defs>
    <style>
      .cls-1 {
        fill: #04264f;
      }

      .cls-2 {
        fill: #f60;
      }

      .cls-3 {
        fill: #1e1e1e;
      }

      .cls-4 {
        fill: #fefefe;
      }
    </style>
  </defs>
  <g>
    <g>
      <path class="cls-3" d="M654.11,172.17c.79,0,1.48-.06,2.08-.19s1.12-.29,1.58-.48c.45-.19.84-.4,1.17-.62.33-.22.61-.42.84-.62.24-.19.44-.35.61-.48.17-.13.33-.19.47-.19.12,0,.22.02.3.06.08.04.14.09.19.15l1.31,1.63c-1.14,1.25-2.46,2.21-3.95,2.9-1.5.69-3.24,1.03-5.21,1.03-1.57,0-2.98-.28-4.22-.84-1.24-.56-2.29-1.34-3.15-2.34-.86-1-1.51-2.19-1.97-3.57-.45-1.38-.68-2.9-.68-4.56,0-1.5.16-2.92.48-4.26.32-1.34.78-2.58,1.37-3.72.59-1.14,1.3-2.16,2.13-3.07.83-.91,1.75-1.67,2.77-2.3s2.11-1.11,3.28-1.45,2.4-.51,3.68-.51c.93,0,1.78.08,2.54.24.76.16,1.45.4,2.07.7.62.3,1.18.67,1.69,1.1.51.43.97.91,1.4,1.44l-1.27,1.54c-.11.13-.23.24-.35.33s-.29.13-.5.13c-.23,0-.46-.12-.71-.35-.24-.24-.57-.49-.97-.77-.41-.28-.93-.54-1.57-.77-.64-.24-1.48-.35-2.5-.35-1.37,0-2.64.28-3.83.83-1.18.55-2.21,1.34-3.08,2.36-.87,1.02-1.56,2.26-2.06,3.71-.5,1.45-.75,3.08-.75,4.88,0,1.31.17,2.48.51,3.52.34,1.04.81,1.92,1.42,2.65.6.73,1.32,1.28,2.16,1.67.83.39,1.75.58,2.74.58Z"/>
      <path class="cls-3" d="M672.13,175.35c-1,0-1.93-.17-2.78-.52s-1.58-.84-2.19-1.5c-.61-.65-1.09-1.45-1.43-2.4-.34-.95-.52-2.03-.52-3.26,0-1.56.25-3.03.73-4.4.49-1.37,1.16-2.57,2.01-3.59.85-1.02,1.86-1.83,3.01-2.41,1.16-.59,2.4-.88,3.73-.88,1,0,1.93.17,2.78.52s1.58.84,2.19,1.5,1.09,1.45,1.43,2.4.52,2.03.52,3.24c0,1.55-.25,3.01-.73,4.38-.49,1.37-1.16,2.57-2.01,3.6-.85,1.03-1.86,1.84-3.01,2.43-1.16.59-2.4.89-3.73.89ZM672.45,172.59c.85,0,1.62-.23,2.31-.7s1.29-1.09,1.78-1.88c.49-.79.87-1.69,1.13-2.72.27-1.03.4-2.1.4-3.23,0-1.66-.31-2.89-.94-3.7-.63-.81-1.55-1.21-2.76-1.21-.86,0-1.63.23-2.32.7-.69.46-1.28,1.09-1.77,1.87-.49.78-.87,1.68-1.13,2.71-.27,1.03-.4,2.1-.4,3.23,0,1.63.31,2.86.94,3.69.63.83,1.55,1.24,2.76,1.24Z"/>
      <path class="cls-3" d="M701.31,156.66l-2.23,18.43h-1.76c-.86,0-1.29-.42-1.29-1.27l.22-3.01c-.96,1.5-2.03,2.63-3.22,3.39-1.19.76-2.42,1.14-3.67,1.14-.77,0-1.46-.15-2.06-.46-.6-.31-1.09-.76-1.46-1.35-.38-.59-.63-1.32-.77-2.19-.14-.86-.14-1.85,0-2.96l1.4-11.72h3.52l-1.38,11.72c-.17,1.38-.09,2.39.24,3.05s.94.98,1.85.98c.54,0,1.1-.15,1.67-.44.57-.3,1.12-.72,1.65-1.26.53-.54,1.02-1.2,1.48-1.98.45-.77.84-1.63,1.17-2.58l1.12-9.49h3.54Z"/>
      <path class="cls-3" d="M709.02,161.63c.48-1,1-1.87,1.56-2.6.56-.73,1.14-1.31,1.74-1.72.6-.42,1.23-.67,1.88-.76.65-.09,1.3,0,1.95.3l-.63,3.41c-1.56-.63-2.93-.42-4.1.63-1.17,1.05-2.12,3-2.85,5.84l-1.02,8.36h-3.46l2.23-18.46h1.78c.39,0,.68.1.89.29.21.19.31.5.31.91l-.27,3.81Z"/>
      <path class="cls-3" d="M722.86,156.66l-2.23,18.43h-3.48l2.21-18.43h3.5ZM724.05,150.97c0,.33-.07.64-.21.93-.14.3-.32.56-.54.78-.22.22-.48.4-.77.53s-.59.19-.89.19-.59-.06-.87-.19c-.28-.13-.52-.3-.74-.53s-.38-.48-.51-.78c-.13-.3-.19-.61-.19-.93s.06-.64.19-.93c.13-.3.3-.56.52-.78.22-.22.47-.4.75-.53.28-.13.58-.2.88-.2s.6.06.89.19c.29.13.54.3.76.53.22.22.39.48.53.78.13.3.2.61.2.95Z"/>
      <path class="cls-3" d="M740.51,171.68c-.63.64-1.24,1.19-1.83,1.65-.59.46-1.2.84-1.82,1.14-.62.3-1.27.52-1.95.66-.68.14-1.42.21-2.21.21-1.05,0-2-.18-2.86-.54s-1.58-.86-2.17-1.51c-.59-.65-1.05-1.44-1.37-2.37-.32-.92-.48-1.96-.48-3.11,0-.96.1-1.9.3-2.84.2-.94.49-1.83.88-2.67.39-.84.86-1.62,1.42-2.35.56-.73,1.19-1.35,1.9-1.88.71-.53,1.5-.94,2.36-1.23s1.78-.44,2.78-.44,1.76.13,2.45.4c.69.27,1.26.61,1.71,1.03.45.42.79.88,1.01,1.39s.33,1,.33,1.49c0,.8-.16,1.53-.49,2.2-.33.67-.92,1.28-1.79,1.81-.87.54-2.05,1.01-3.56,1.41-1.51.4-3.45.72-5.82.96-.01.11-.02.22-.02.33v.33c0,1.58.34,2.78,1.02,3.59.68.81,1.71,1.22,3.09,1.22.57,0,1.08-.06,1.52-.17.45-.11.84-.26,1.19-.43.34-.17.65-.35.92-.55.27-.2.51-.38.73-.55.22-.17.43-.31.63-.43.19-.11.39-.17.6-.17.13,0,.25.03.35.1s.2.15.3.25l.89,1.09ZM735.25,158.93c-.73,0-1.39.15-2,.44-.6.3-1.15.71-1.63,1.23-.48.53-.9,1.14-1.23,1.85-.34.71-.61,1.48-.8,2.31,1.78-.23,3.2-.48,4.27-.76,1.07-.28,1.89-.58,2.48-.92.58-.33.96-.69,1.15-1.06s.28-.77.28-1.2c0-.21-.04-.42-.14-.64s-.24-.43-.44-.62-.46-.34-.78-.46c-.32-.12-.71-.18-1.17-.18Z"/>
      <path class="cls-3" d="M748.54,161.63c.48-1,1-1.87,1.56-2.6.56-.73,1.14-1.31,1.74-1.72.6-.42,1.23-.67,1.88-.76.65-.09,1.3,0,1.95.3l-.63,3.41c-1.56-.63-2.93-.42-4.1.63-1.17,1.05-2.12,3-2.85,5.84l-1.02,8.36h-3.46l2.23-18.46h1.78c.39,0,.68.1.89.29.21.19.31.5.31.91l-.27,3.81Z"/>
    </g>
    <g>
      <path class="cls-1" d="M367.78,110.95l-.67,4.62-4.83,23.02c-.21.99-.78,1.48-1.69,1.48h-9.9c-.89,0-1.23-.49-1.02-1.48l10.05-47.27c.21-1.01.78-1.52,1.69-1.52h12.79c.24,0,.42.04.55.11.13.07.22.17.28.28.06.12.11.28.14.48.04.2.08.42.12.65l4.79,22.45v5.6l2.43-5.67,14.28-22.38c.16-.23.3-.45.41-.65.11-.2.21-.36.32-.48.11-.12.23-.21.37-.28.14-.07.34-.11.6-.11h12.83c.92,0,1.27.51,1.06,1.52l-10.05,47.27c-.21.99-.76,1.48-1.66,1.48h-9.9c-.94,0-1.3-.49-1.09-1.48l5-23.05,1.16-4.2-2.71,4.55-9.94,16.95c-.35.61-.64,1.02-.86,1.23-.22.21-.58.32-1.08.32h-8.78c-.49,0-.79-.11-.9-.32-.11-.21-.21-.62-.3-1.23l-2.64-17.24-.85-4.65Z"/>
      <path class="cls-1" d="M431.37,122.86c-.38,2.14-.1,3.82.83,5.04.93,1.22,2.37,1.83,4.32,1.83.89,0,1.79-.18,2.68-.53.89-.35,1.79-1.02,2.68-2.01.28-.31.56-.48.83-.53.27-.05.5-.01.69.11l7.54,4.51c.45.26.33.8-.35,1.62-.92,1.13-1.95,2.2-3.1,3.21-1.15,1.01-2.42,1.9-3.79,2.66-1.38.76-2.85,1.37-4.42,1.81-1.58.45-3.23.67-4.97.67-2.75,0-5.21-.48-7.37-1.43-2.16-.95-3.93-2.26-5.3-3.91-1.38-1.66-2.32-3.62-2.82-5.89-.51-2.27-.48-4.72.09-7.35l.39-1.9,1.3-6.13c.59-2.73,1.62-5.23,3.08-7.53s3.24-4.27,5.32-5.94c2.08-1.67,4.41-2.97,6.98-3.91,2.57-.94,5.25-1.41,8.02-1.41,1.03,0,2.15.13,3.35.39,1.2.26,2.36.69,3.49,1.3s2.17,1.42,3.14,2.41c.96,1,1.75,2.24,2.36,3.74s.98,3.24,1.11,5.25-.08,4.32-.62,6.93l-.71,3.45c-.28,1.36-.79,2.29-1.53,2.78s-1.79.74-3.16.74h-20.06ZM441.27,107.35c-1.13,0-2.13.19-3.01.56-.88.38-1.65.87-2.31,1.48-.66.61-1.2,1.29-1.62,2.03-.42.74-.74,1.46-.95,2.17h12.23c.09-.66.14-1.35.14-2.08s-.14-1.4-.42-2.01c-.28-.61-.74-1.12-1.38-1.53-.63-.41-1.53-.62-2.68-.62Z"/>
      <path class="cls-1" d="M502.67,129.24h.04l-.88,4.09c-.87,4.02-2.16,7.44-3.88,10.26-1.71,2.82-3.7,5.11-5.94,6.87-2.25,1.76-4.67,3.04-7.26,3.82-2.6.79-5.2,1.16-7.81,1.11-1.39-.02-2.74-.15-4.07-.37-1.33-.22-2.58-.56-3.77-1s-2.29-1.02-3.29-1.71c-1.01-.69-1.9-1.52-2.68-2.49-.33-.4-.41-.78-.23-1.13.18-.35.44-.69.79-1.02l5.53-5.32c.56-.54,1.08-.8,1.55-.78.47.02.88.2,1.23.53.85.78,1.87,1.3,3.07,1.59,1.2.28,2.54.42,4.02.42,1.1,0,2.18-.18,3.23-.55,1.04-.36,2-.89,2.85-1.59s1.6-1.55,2.22-2.57c.62-1.02,1.08-2.19,1.36-3.51l.04-.28c-1.34,1.39-2.75,2.5-4.23,3.33s-3.03,1.25-4.65,1.25c-2.49,0-4.71-.48-6.64-1.44-1.94-.96-3.52-2.29-4.74-3.97-1.22-1.68-2.04-3.65-2.45-5.92-.41-2.27-.33-4.69.23-7.28l1.52-7.05c.56-2.61,1.53-5.05,2.91-7.31,1.37-2.27,3.03-4.25,4.95-5.94,1.93-1.69,4.06-3.02,6.4-3.98,2.34-.96,4.75-1.45,7.24-1.45,1.03,0,1.98.15,2.84.46.86.31,1.63.72,2.33,1.25.69.53,1.3,1.17,1.82,1.92.52.75.95,1.56,1.3,2.43l1.52-3.45c.49-1.03,1.3-1.55,2.43-1.55h6.45c.47,0,.82.13,1.06.39.23.26.29.66.18,1.2l-6.56,30.74ZM478.81,121.88c-.21.96-.25,1.86-.11,2.7s.42,1.56.83,2.17c.41.61.95,1.09,1.62,1.43.67.34,1.45.51,2.34.51.94,0,1.84-.16,2.71-.49.87-.33,1.67-.78,2.4-1.34.73-.56,1.36-1.23,1.89-2.01.53-.78.92-1.61,1.18-2.5l.81-3.81.14-.71.78-3.67c.21-.96.23-1.86.05-2.68-.18-.82-.51-1.54-1-2.15-.49-.61-1.12-1.09-1.87-1.45-.75-.35-1.61-.53-2.57-.53-.89,0-1.75.18-2.57.53-.82.35-1.57.83-2.24,1.45-.67.61-1.25,1.33-1.73,2.15s-.83,1.72-1.04,2.68l-1.62,7.72Z"/>
      <path class="cls-1" d="M546.03,113.06c.09-.8.05-1.54-.14-2.24-.19-.69-.49-1.3-.92-1.82-.42-.52-.94-.92-1.55-1.22s-1.27-.44-1.97-.44c-.8,0-1.6.15-2.4.46-.8.31-1.54.73-2.22,1.29-.68.55-1.28,1.21-1.78,1.96-.51.75-.86,1.56-1.08,2.43l-5.32,24.99c-.05.26-.17.49-.35.69-.19.2-.41.36-.65.49s-.51.23-.79.3-.54.11-.78.11h-9.2c-1.03,0-1.45-.53-1.23-1.59l11.21-52.59c.21-1.06.83-1.59,1.87-1.59h9.09c.28,0,.56.02.83.05.27.04.51.12.71.26.2.14.34.34.42.6s.08.6-.02,1.02l-2.96,13.89c1.36-1.29,2.88-2.33,4.57-3.1,1.68-.78,3.58-1.16,5.69-1.16,1.01,0,2.07.15,3.19.46,1.12.31,2.19.77,3.21,1.39,1.02.62,1.97,1.4,2.84,2.34.87.94,1.58,2.05,2.13,3.33.55,1.28.9,2.74,1.04,4.37.14,1.63,0,3.44-.42,5.41l-.46,2.15h-.04v.11l-4.9,23.09c-.12.52-.33.9-.63,1.16-.31.26-.69.39-1.16.39h-10.01c-1.01,0-1.41-.52-1.2-1.55l5.39-25.45Z"/>
      <path class="cls-2" d="M567.64,131.08c-.12-.35-.21-.69-.26-1-.06-.32-.07-.6-.02-.86.05-.26.16-.5.33-.72.18-.22.45-.43.83-.62l8.81-4.19c.42-.19.81-.21,1.16-.07s.62.52.81,1.13c.19.56.49,1.12.92,1.66.42.54.93,1.03,1.52,1.46.59.44,1.24.79,1.96,1.06.72.27,1.47.41,2.27.41.85,0,1.63-.09,2.34-.26.72-.18,1.34-.43,1.87-.76.53-.33.94-.74,1.23-1.23.29-.49.44-1.06.44-1.69s-.22-1.26-.65-1.8c-.43-.54-1.06-1.08-1.89-1.62s-1.83-1.11-3.01-1.71c-1.19-.6-2.52-1.31-4-2.13-1.53-.82-2.81-1.69-3.84-2.61-1.03-.92-1.87-1.87-2.5-2.87-.63-1-1.09-2.03-1.38-3.1s-.42-2.17-.42-3.3c0-2.61.53-4.99,1.6-7.16s2.54-4.01,4.41-5.55,4.05-2.74,6.54-3.6c2.49-.86,5.17-1.29,8.04-1.29,1.6,0,3.18.15,4.74.44s3.02.79,4.37,1.5c1.35.71,2.57,1.65,3.65,2.82,1.08,1.17,1.94,2.64,2.57,4.41.26.71.35,1.33.26,1.89-.08.55-.46.98-1.15,1.29l-7.65,3.38c-.61.26-1.12.34-1.52.25-.4-.09-.76-.45-1.09-1.06-.49-.99-1.26-1.73-2.29-2.22-1.03-.49-2.22-.74-3.56-.74-.78,0-1.5.06-2.17.19-.67.13-1.26.32-1.76.58-.51.26-.91.59-1.2,1-.29.41-.44.9-.44,1.46,0,.33.08.67.23,1,.15.34.41.69.78,1.04s.85.72,1.45,1.09,1.34.76,2.24,1.16c2,.92,3.8,1.87,5.41,2.87,1.61,1,2.98,2.09,4.11,3.26,1.13,1.18,1.99,2.47,2.59,3.88.6,1.41.9,2.98.9,4.72s-.26,3.44-.78,5.04c-.52,1.6-1.25,3.08-2.19,4.44-.94,1.36-2.07,2.59-3.38,3.68-1.32,1.09-2.78,2.03-4.39,2.8s-3.34,1.37-5.2,1.8c-1.86.42-3.78.63-5.78.63s-3.94-.25-5.67-.76c-1.74-.5-3.29-1.21-4.65-2.11-1.36-.91-2.51-1.98-3.45-3.23-.94-1.25-1.63-2.61-2.08-4.09Z"/>
      <path class="cls-2" d="M652.37,108.16l.42,12.97-.11,4.19,1.66-4.23,10.4-22.73c.26-.52.58-.89.97-1.13.39-.23.82-.35,1.29-.35h10.43c.61,0,.93.19.97.58s-.17.96-.62,1.71l-22.95,39.41c-.56.99-1.33,1.48-2.29,1.48h-6.52c-1.01,0-1.56-.49-1.66-1.48l-1.45-11.35-.25-3.81-1.73,3.91-6.31,11.24c-.56.99-1.33,1.48-2.29,1.48h-6.52c-.96,0-1.52-.49-1.66-1.48l-5.67-39.09c-.12-.85,0-1.49.33-1.94.34-.45.85-.67,1.53-.67h9.94c.99,0,1.5.54,1.55,1.62l.81,22.7-.21,4.33,1.66-4.37,10.47-22.81c.26-.52.58-.89.97-1.13.39-.23.82-.35,1.29-.35h10.4c.61,0,.93.19.97.58s-.17.96-.62,1.71l-5.22,8.99Z"/>
      <path class="cls-2" d="M682.12,114.54c.56-2.61,1.53-5.05,2.91-7.31,1.37-2.27,3.03-4.25,4.95-5.94,1.93-1.69,4.06-3.02,6.4-3.98,2.34-.96,4.75-1.45,7.24-1.45,1.06,0,2.01.15,2.87.46.86.31,1.63.73,2.31,1.27s1.28,1.19,1.8,1.94c.52.75.96,1.56,1.34,2.43l1.52-3.49c.23-.54.56-.93.99-1.18s.9-.37,1.45-.37h6.45c.47,0,.82.13,1.04.39.22.26.28.66.16,1.2l-8.49,39.97c-.12.54-.35.94-.69,1.2-.34.26-.75.39-1.22.39h-6.63c-.47,0-.85-.13-1.15-.41-.29-.27-.44-.66-.44-1.18v-3.42c-.75.89-1.55,1.71-2.4,2.47-.85.75-1.73,1.4-2.64,1.96-.92.55-1.87.99-2.85,1.3-.99.32-2,.48-3.03.48-2.49,0-4.71-.48-6.64-1.45-1.94-.96-3.52-2.29-4.74-3.96s-2.04-3.65-2.45-5.92c-.41-2.27-.33-4.69.23-7.28l1.73-8.11ZM692.91,122.93c-.21.96-.25,1.86-.11,2.7.14.83.42,1.56.83,2.17.41.61.95,1.09,1.62,1.43.67.34,1.45.51,2.34.51.96,0,1.9-.18,2.8-.53.9-.35,1.73-.83,2.47-1.43.74-.6,1.37-1.31,1.89-2.13s.88-1.72,1.09-2.68l.42-2.01.53-2.43,1.06-4.97c.09-.89.04-1.71-.18-2.47-.21-.75-.56-1.4-1.06-1.96-.49-.55-1.1-.99-1.82-1.3s-1.53-.48-2.45-.48-1.75.18-2.57.53-1.57.83-2.24,1.45c-.67.61-1.25,1.33-1.73,2.15-.48.82-.83,1.72-1.04,2.68l-1.87,8.78Z"/>
      <path class="cls-2" d="M738.48,98.47c.21-1.06.83-1.59,1.87-1.59h6.7c.54,0,1,.12,1.39.35.39.24.59.76.62,1.59l.04,3.14c.66-.85,1.37-1.64,2.13-2.38.76-.74,1.59-1.39,2.48-1.94.89-.55,1.85-.99,2.87-1.3,1.02-.32,2.12-.48,3.3-.48,1.1,0,2.1.1,3,.3.89.2,1.69.43,2.38.71s1.27.55,1.73.85.79.54,1,.72c.45.4.65.84.62,1.32s-.18.99-.44,1.53l-3.67,7.82c-.14.28-.34.5-.6.65-.26.15-.54.25-.83.3-.29.05-.58.05-.85,0-.27-.05-.49-.14-.65-.28-.45-.38-.86-.72-1.23-1.02s-.78-.56-1.22-.78c-.44-.21-.93-.37-1.48-.48-.55-.11-1.23-.16-2.03-.16-1.67,0-3.17.5-4.51,1.52-1.34,1.01-2.28,2.54-2.82,4.58l-5.32,25.03c-.12.54-.39.94-.81,1.2-.42.26-.87.39-1.34.39h-9.62c-1.03,0-1.45-.53-1.23-1.59l8.53-40.01Z"/>
    </g>
    <polygon class="cls-1" points="365.33 161.7 630.08 167.97 346.39 167.58 365.33 161.7"/>
  </g>
  <g>
    <path class="cls-4" d="M285.03,122.99l-.37.16c.11-.11.26-.19.37-.16Z"/>
    <path class="cls-2" d="M44.09,191.06L327.77,63.82c2.44-1.09,4.71,1.81,3.07,3.92l-86.31,110.39s-23.71-36.64-88.37-19.4c-64.66,17.24-112.08,32.33-112.08,32.33Z"/>
    <path class="cls-1" d="M270.33,83.29l-138.49,62.12c-.23-.26-.45-.52-.67-.79-5.87-7.4-6.11-17.39-.61-24.86,5.3-7.19,26.1-9.57,26.1-9.57-.18-.16-.35-.33-.52-.5-3.43-3.48-5.23-8.6-5.11-15,.32-17.16,10.84-31.17,27.1-36.09,15.61-4.72,31.93,1.38,42.11,15.74,1.12-.1,1.1-1.15,1.46-1.84,5.03-9.54,12.95-14.62,23.7-14.36,10.39.25,18.18,5.38,22.44,14.89,1.57,3.5,2.39,6.93,2.47,10.27Z"/>
    <path class="cls-2" d="M181.88,162.96c.03,2.86-.59,4.58-2.21,5.24-14.73,5.98-29.41,12.05-44.12,18.08-.39.16-.73.54-1.82-.37,16.22-7.73,32.18-15.34,48.15-22.94Z"/>
    <path class="cls-2" d="M203.63,183.23c.17,2.85-.37,4.6-1.96,5.34-14.43,6.67-28.81,13.43-43.21,20.16-.38.18-.71.58-1.84-.29,15.83-8.49,31.42-16.85,47-25.21Z"/>
    <path class="cls-2" d="M165.66,187.03c13.16-6.81,26.32-13.62,39.49-20.4.43-.22.93-1.12,1.67.45.83,1.74.21,2.24-.61,2.62-5.37,2.43-10.71,4.94-16.08,7.37-8.13,3.68-16.27,7.31-24.41,10.96-.02-.33-.04-.67-.06-1Z"/>
  </g>
</svg>