<?xml version="1.0" encoding="UTF-8"?>
<svg id="Layer_1" data-name="Layer 1" xmlns="http://www.w3.org/2000/svg" viewBox="0 0 1024 768">
  <defs>
    <style>
      .cls-1 {
        fill: #fff;
      }

      .cls-2 {
        fill: #f1763b;
      }

      .cls-3 {
        fill: #16354a;
      }
    </style>
  </defs>
  <path class="cls-3" d="M914.09,134.71c-.07,1.36-.55,1.98-1.51,2.58-3.99,2.48-8.01,4.93-11.8,7.69-4.13,3.01-8.18,6.16-11.68,9.94-1.97,2.12-4.05,4.14-6.13,6.15-3.7,3.56-6.71,7.66-9.82,11.73-4.62,6.06-8.32,12.64-11.91,19.3-1.51,2.8-2.73,5.75-4.01,8.66-1.05,2.4-2.08,4.81-2.96,7.27-.63,1.76-1.01,3.62-1.49,5.44-.08.32-.06.68-.21.96-2.28,4.64-2.92,9.76-3.84,14.72-.75,4.08-1.5,8.25-1.43,12.51.06,3.35-.66,6.71-1.02,10.06-.13,1.22-.35,2.45-.35,3.68-.03,18.2-.02,36.39-.03,54.59,0,1.16,0,2.32-.02,3.47-.05,2.78-.49,3.03-3.03,2.13-3.09-1.1-6.17-2.32-9.37-2.98-3.36-.7-6.85-1.07-10.29-1.1-12.74-.12-25.47-.06-38.21-.01-1.8,0-3.6.3-5.41.45-4.79.4-9.26,2.1-13.81,3.46-.84.25-1.52.99-2.35,1.33-3.82,1.59-7.4,3.54-10.35,6.51-4.25,4.28-8.7,8.4-12.74,12.87-3.01,3.34-5.96,6.81-7.9,10.97-.31.67-.82,1.24-1.23,1.86-1.87,2.89-3.73,5.79-5.62,8.67-.45.69-.98,1.33-1.45,2-2.65,3.78-5.33,7.53-7.91,11.35-2.16,3.2-4.19,6.5-6.32,9.72-.9,1.37-1.91,2.66-2.85,4-2.13,3.04-4.27,6.06-6.35,9.13-1.84,2.73-3.58,5.53-5.41,8.27-1.32,1.98-2.73,3.91-4.09,5.87-2.6,3.72-5.27,7.39-7.77,11.18-2.54,3.85-4.8,7.89-7.35,11.73-2.68,4.05-5.61,7.94-8.34,11.95-2.64,3.88-5.14,7.86-7.76,11.75-1.8,2.66-3.74,5.23-5.57,7.87-1.08,1.56-2.05,3.18-3.08,4.77-3.19,4.89-6.37,9.79-9.58,14.67-.9,1.37-1.91,2.67-2.85,4.01-3.59,5.14-7.2,10.27-10.76,15.43-1.45,2.1-2.79,4.28-4.2,6.41-1.77,2.67-3.55,5.34-5.34,7.99-2.72,4.03-5.44,8.05-8.17,12.06-3.06,4.49-6.13,8.99-9.21,13.46-.79,1.15-1.61,1.18-2.53-.09-1.22-1.66-2.35-3.41-3.37-5.2-1.89-3.31-4.24-6.28-6.47-9.35-3.11-4.27-5.87-8.78-8.84-13.15-2.55-3.75-5.21-7.43-7.75-11.18-1.11-1.64-2-3.42-3.08-5.07-1.4-2.14-2.91-4.21-4.34-6.33-2.26-3.35-4.5-6.71-6.75-10.07-1.24-1.85-2.47-3.72-3.74-5.55-2.21-3.19-4.5-6.33-6.66-9.54-1.94-2.88-3.72-5.86-5.63-8.75-2.23-3.37-4.57-6.67-6.79-10.04-1.54-2.34-2.98-4.74-4.47-7.11-.62-.98-1.23-1.95-1.89-2.9-2.73-3.94-5.54-7.82-8.2-11.81-3.39-5.08-6.65-10.25-10-15.36-1.99-3.03-4.04-6.02-6.05-9.03-3.26-4.87-6.47-9.77-9.78-14.61-2.61-3.82-5.4-7.51-7.98-11.34-2.99-4.45-5.8-9.03-8.76-13.5-4.61-6.95-9.24-13.88-13.95-20.76-3.22-4.7-6.59-9.29-9.9-13.92-.26-.37-.67-.63-1-.94-1.19.64-.92,1.63-.92,2.49-.02,33.08-.03,66.16-.04,99.25,0,4.14,0,8.27-.02,12.41,0,2.31-.22,2.55-2.55,2.57-4.63.03-9.26,0-13.89,0-25.97.02-51.94.03-77.91.05-.5,0-.99,0-1.49,0-1.21,0-1.84-.6-1.87-1.81-.01-.58,0-1.16,0-1.74-.02-59.8-.02-119.59-.09-179.39,0-6.61-.03-13.26-.76-19.82-.57-5.13-.87-10.36-2.53-15.36-1.04-3.12-1.53-6.42-2.5-9.57-1.21-3.94-2.69-7.79-4.01-11.69-2.18-6.44-5.48-12.34-8.84-18.21-3.12-5.45-6.75-10.56-10.71-15.45-5.69-7.01-11.9-13.54-18.58-19.59-4.78-4.32-9.98-8.12-15.57-11.35-1.68-.97-3.25-2.1-4.88-3.16.67-1.3,1.57-.97,2.33-.97,6.04,0,12.07.01,18.11.01,31.1.02,62.2-.03,93.29.13,4.59.02,9.27.66,13.73,1.72,5.25,1.25,10.51,2.75,15.39,5.21,5.17,2.6,10.27,5.38,14.68,9.14,6.17,5.25,12.08,10.85,16.91,17.39,3.19,4.31,5.93,8.94,8.9,13.41,3.61,5.44,7.23,10.86,10.85,16.28,4.44,6.66,8.88,13.32,13.31,19.98,3.47,5.22,6.97,10.42,10.41,15.66,3.71,5.65,7.34,11.35,11.07,16.99,1.91,2.89,3.96,5.69,5.89,8.56,1.75,2.6,3.43,5.24,5.15,7.85,4.23,6.41,8.46,12.8,12.69,19.21,3.45,5.23,6.86,10.5,10.35,15.71,2.89,4.31,5.9,8.54,8.8,12.84,4.7,6.98,9.34,14,14.04,20.97,2.8,4.16,5.68,8.28,8.51,12.42,3.76,5.51,7.55,11,11.27,16.54,1.79,2.67,3.38,5.47,5.21,8.11,2.78,4.02,3.58,3.93,6.22-.07,1.99-3.02,4.19-5.9,6.21-8.9,2.03-3.01,3.96-6.09,5.94-9.12,1.8-2.76,3.64-5.49,5.44-8.25,3.42-5.25,6.8-10.53,10.23-15.78,1.58-2.41,3.26-4.76,4.87-7.16,3.43-5.13,6.8-10.3,10.25-15.42,2.44-3.62,5.01-7.15,7.47-10.75,1.9-2.79,3.71-5.65,5.59-8.47,1.19-1.78,2.46-3.51,3.62-5.32,2.13-3.33,4.18-6.72,6.31-10.05,1.02-1.6,2.15-3.13,3.23-4.68,2.92-4.19,5.9-8.34,8.74-12.58,1.97-2.93,3.74-6,5.65-8.97,2.89-4.5,6-8.85,9.14-13.19,2.12-2.93,3.82-6.15,5.81-9.18,1.9-2.88,3.95-5.65,5.9-8.49.6-.88,1.1-1.83,1.66-2.74,1.65-2.65,3.26-5.33,4.98-7.94,1.4-2.12,3.02-4.11,4.4-6.24,3.37-5.18,6.63-10.42,9.99-15.61.67-1.03,1.62-1.88,2.31-2.9,2.14-3.2,4.12-6.52,6.34-9.66,2.23-3.16,4.41-6.42,7.07-9.21,4.27-4.48,8.68-8.88,13.47-12.78,3.35-2.72,7.04-5.16,11.14-6.82,3.26-1.33,6.41-2.93,9.63-4.37.66-.3,1.42-.53,2.14-.54,1.36-.01,2.57-.31,3.77-.99.75-.42,1.72-.52,2.6-.63,3.19-.39,6.4-.74,9.6-1.07.9-.09,1.81-.13,2.72-.13,37.14,0,74.27,0,111.41.02,1.04,0,2.08.13,3.19.2Z"/>
  <path class="cls-2" d="M748.85,540.42c-.41-1.19-.75-1.89-.89-2.64-.13-.72-.06-1.48-.07-2.23-.04-57.32-.09-114.63-.12-171.95,0-2.3.62-4.5,1.27-6.73,1.12-3.8,3.15-7.15,4.8-10.68.17-.37.39-.74.68-1.02,3.01-2.81,6.09-5.56,9.06-8.42,2.65-2.55,6.21-3.2,9.35-4.72,2.73-1.33,5.79-1.03,8.52-2.23.92-.4,2.12-.21,3.19-.2,12.49.07,24.97.15,37.46.23,1.81.01,3.6-.03,5.35.72.86.37,1.95.18,2.94.25.82.06,1.87-.19,2.43.23,2.13,1.57,4.81,1.53,7.07,2.65,2.2,1.09,4.52,2,6.56,3.34,2.68,1.76,5.29,3.7,7.65,5.88,2.78,2.57,5.41,5.34,7.83,8.26,3.78,4.57,7.32,9.35,10.96,14.03,1.37,1.75,2.82,3.44,4.12,5.24,2.06,2.86,3.97,5.84,6.04,8.69,2.67,3.67,5.43,7.27,8.17,10.89,2.88,3.82,5.8,7.61,8.66,11.44,4.53,6.07,9.01,12.17,13.54,18.24,1.97,2.63,4.11,5.14,5.99,7.84,4.99,7.15,10.38,14.04,14.4,21.82,1.42,2.76,2.45,5.68,3.51,8.6,1.77,4.88,1.86,9.86,1.86,14.89,0,22.66,0,45.32-.06,67.99,0,2.72-.18,5.46-.59,8.14-.26,1.66-.99,3.3-1.76,4.83-1.25,2.5-2.48,5.04-4.61,6.99-1.04.95-2.03,1.95-2.98,2.98-3.44,3.75-7.83,5.94-12.49,7.7-.76.29-1.6.36-2.41.5-.65.11-1.36.03-1.96.25-6.33,2.27-12.91,1.36-19.4,1.53-2.04.05-2.61-.67-2.76-2.68-.19-2.55-.38-5.1-.61-7.65-.06-.65-.27-1.29-.4-1.93-.27-1.36-.66-2.71-.75-4.08-.1-1.51-.32-2.86-1.07-4.24-.8-1.47-1.03-3.25-1.67-4.82-1.01-2.5-1.92-5.09-3.3-7.38-2.99-4.99-5.66-10.23-10.21-14.15-2.44-2.1-4.6-4.52-6.87-6.81-2.75-2.77-5.77-5.17-9.34-6.83-.22-.1-.41-.27-.62-.4-2.56-1.62-5.06-3.36-7.71-4.83-1.63-.9-3.49-1.42-5.27-2.02-2.23-.76-4.48-1.45-6.73-2.15-.87-.27-1.75-.61-2.64-.67-1.68-.1-3.23-.5-4.75-1.25-.7-.35-1.6-.42-2.41-.42-6.62-.03-13.23-.05-19.85.03-1.29.02-2.59.44-3.86.74-3.03.73-6.08,1.38-9.06,2.29-2.1.64-4.03,1.89-6.15,2.43-3.9.99-6.89,3.76-10.6,5.11-1.02.37-1.72,1.55-2.69,2.14-5.75,3.45-10.08,8.5-14.64,13.23-2.66,2.76-4.64,6.17-6.96,9.25-.88,1.16-1.88,2.23-3.18,3.75ZM836.55,437.62c15.87,0,31.75,0,47.62,0,.91,0,1.84.04,2.72-.13,1.64-.32,1.97-1.27.99-2.63-1.16-1.59-2.37-3.14-3.5-4.74-2.22-3.15-4.37-6.34-6.6-9.47-.86-1.21-1.91-2.28-2.76-3.49-1.83-2.62-3.48-5.37-5.38-7.93-3.62-4.88-7.39-9.66-11.06-14.5-2.93-3.87-5.85-7.75-8.71-11.67-2.42-3.32-4.74-6.71-7.1-10.06-1.13-1.61-2.23-3.24-3.42-4.8-1.77-2.33-3.83-3.71-7.09-3.67-14.3.18-28.6.07-42.9.08-4.86,0-5.11.26-5.11,5.21,0,20.83,0,41.67,0,62.5,0,.66-.02,1.32.01,1.98.1,2.12,1.08,3.13,3.21,3.3.82.06,1.65.03,2.48.03,15.54,0,31.08,0,46.63,0Z"/>
  <path d="M278.35,516.69c-1.39-.54-2.32-.91-3.46-1.35,2.19-1.14,2.31-1.1,3.46,1.35Z"/>
  <path class="cls-2" d="M369.65,462.62c26.88,0,53.76,0,80.64,0,.5,0,.99-.01,1.49,0,1.57.07,2.36.85,2.39,2.41.03,1.7.01,3.39.01,5.09,0,15.38-.06,30.77.06,46.15.02,2.64-2.34,5.13-4.98,4.9-2.63-.22-5.29-.09-7.93-.02-1.17.03-2.04-.36-2.9-1.1-1.87-1.62-3.77-3.21-5.73-4.71-1.14-.87-2.4-1.59-3.65-2.31-2.18-1.26-4.37-2.49-6.58-3.69-.53-.29-1.13-.48-1.71-.68-.39-.14-.82-.16-1.19-.33-1.83-.82-3.59-1.84-5.48-2.48-2.04-.7-4.2-1.07-6.31-1.59-.51-.13-1.08-.21-1.51-.48-1.62-.99-3.4-1.23-5.24-1.23-5.54,0-11.09-.16-16.62.05-2.51.1-4.99.91-7.48,1.41-.08.02-.15.1-.23.1-2.4-.18-4.49.93-6.67,1.64-2.11.69-4.23,1.37-6.26,2.24-2.37,1.01-4.67,2.21-6.97,3.37-.95.48-1.86,1.05-2.76,1.62-2,1.29-4.02,2.57-5.97,3.94-1.01.71-1.82,1.69-2.84,2.37-.74.5-1.68.99-2.53.99-15.34.05-30.68.06-46.02.01-3.22,0-6.46-.04-9.64-.48-1.84-.26-3.58-1.34-5.35-2.1-1.12-.48-2.18-1.14-3.32-1.57-2.75-1.04-4.54-3.26-6.53-5.22-1.32-1.3-2.52-2.73-3.63-4.22-.65-.87-.97-1.98-1.51-2.94-1.91-3.38-3.54-6.83-3.27-10.88.11-1.65.02-3.31.02-4.96,0-1.69.24-3.26.87-4.91,1.62-4.21,3.97-7.84,7.26-10.89,1.84-1.71,3.58-3.57,5.55-5.12,1.88-1.48,4.06-2.52,6.5-2.86.52-.07,1.09-.25,1.5-.56,1.25-.95,2.67-.95,4.13-.95,26.8.01,53.59,0,80.39,0v-.02Z"/>
  <path class="cls-1" d="M428.78,553.98c-28.89-46.92-103.75-1.32-72.56,46.09,11.43,17.37,36.46,24.16,55.08,14.92.56-.28,1.12-.57,1.67-.88,20.09-11.29,27.96-40.4,15.82-60.13Z"/>
  <path class="cls-3" d="M448.11,577.01c1.25,35.29-33.59,62.41-67.73,55.65-26.06-5.15-45.65-28.6-44.92-55.14.64-23.34,15.26-45.76,37.43-53.97,24.38-9.04,52.14,1.51,65.98,23.14,5.6,8.74,8.86,19.52,9.24,30.32ZM351.4,577.05c-.1,21.02,18.16,39.54,39.44,39.89,21.04.35,39.64-17.91,40.29-38.38.76-24.23-18.21-41.51-39.22-41.81-22.3-.32-40.34,17.37-40.51,40.3Z"/>
  <path class="cls-2" d="M391.65,552.11c-13.58,0-24.6,11.01-24.6,24.6s11.01,24.6,24.6,24.6,24.6-11.01,24.6-24.6-11.01-24.6-24.6-24.6ZM383.63,581.93c-6.7-10.19,9.38-19.98,15.59-9.9,2.61,4.24.92,10.49-3.4,12.92-.12.07-.24.13-.36.19-4,1.99-9.38.53-11.83-3.2Z"/>
  <path class="cls-1" d="M852.56,552.79c-28.89-46.92-103.75-1.32-72.56,46.09,11.43,17.37,36.46,24.16,55.08,14.92.56-.28,1.12-.57,1.67-.88,20.09-11.29,27.96-40.4,15.82-60.13Z"/>
  <path class="cls-3" d="M871.89,575.82c1.25,35.29-33.59,62.41-67.73,55.65-26.06-5.15-45.65-28.6-44.92-55.14.64-23.34,15.26-45.76,37.43-53.97,24.38-9.04,52.14,1.51,65.98,23.14,5.6,8.74,8.86,19.52,9.24,30.32ZM775.17,575.87c-.1,21.02,18.16,39.54,39.44,39.89,21.04.35,39.64-17.91,40.29-38.38.76-24.23-18.21-41.51-39.22-41.81-22.3-.32-40.34,17.37-40.51,40.3Z"/>
  <path class="cls-2" d="M815.43,550.92c-13.58,0-24.6,11.01-24.6,24.6s11.01,24.6,24.6,24.6,24.6-11.01,24.6-24.6-11.01-24.6-24.6-24.6ZM807.41,580.74c-6.7-10.19,9.38-19.98,15.59-9.9,2.61,4.24.92,10.49-3.4,12.92-.12.07-.24.13-.36.19-4,1.99-9.38.53-11.83-3.2Z"/>
  <path class="cls-3" d="M301.55,310.57c-.12-.52-.18-1.06-.36-1.56-.73-2.06-1.41-4.14-2.27-6.15-.46-1.08-1.13-2.09-1.86-3.02-1.57-2.01-3.18-3.99-4.88-5.88-1.49-1.65-3.06-3.27-4.76-4.71-1.36-1.15-2.98-2.01-4.48-2.99-1.68-1.09-3.34-2.23-5.05-3.26-1.34-.81-2.75-1.5-4.15-2.21-.28-.14-.64-.21-.95-.2-1.79.04-3.36-.6-4.9-1.43-.42-.22-.93-.31-1.41-.37-2.86-.33-5.73-.64-8.59-.94-.61-.07-1.23-.13-1.85-.13-28.28-.02-56.57-.02-84.85-.03-4.28-1.42-8.77-.18-13.1-1.05-4.26-.86-8.48-1.81-12.47-3.6-.81-.36-1.75-.43-2.59-.76-2.86-1.13-5.75-2.2-8.52-3.52-2.25-1.07-4.38-2.42-6.52-3.72-1.96-1.19-3.96-2.36-5.77-3.77-3.45-2.68-6.94-5.35-9.74-8.75-2.1-2.55-4.3-5.03-6.19-7.72-1.75-2.49-3.14-5.23-4.69-7.86-.06-.11-.06-.27-.14-.34-1.8-1.69-1.97-4.19-3.02-6.25-.95-1.86-.39-4.3,2.47-4.3,57.93.02,115.86-.02,173.79-.02,2.28,0,4.58-.33,6.85.6,1.17.48,2.6.52,3.9.44,2.11-.12,3.94.73,5.87,1.25.91.25,1.88.29,2.79.55,1.56.45,3.08,1.02,4.62,1.52,1.24.4,2.58.61,3.71,1.21,3.13,1.64,6.19,3.44,9.27,5.18,5.16,2.91,9.12,7.23,13.08,11.48,1.74,1.87,2.98,4.23,4.36,6.42,2.07,3.29,3.04,6.89,3.03,10.79-.03,33-.03,66-.03,98.99,0,1.8-.07,1.86-1.9,1.86-8.48-.01-16.95-.04-25.43,0-1.19,0-1.83-.18-2.15-1.54-.66-2.76-1.43-5.51-2.46-8.15-.85-2.17-2.19-4.15-3.25-6.25-3.44-6.83-9.02-11.7-14.85-16.35-2.68-2.13-5.82-3.38-8.9-4.73-2.25-.98-4.58-1.78-6.87-2.66-.23-.09-.47-.2-.71-.22-2.98-.32-5.97-.86-8.95-.9-12.9-.17-25.8-.11-38.69-.33-3.77-.07-7.56-.61-11.27-1.3-3.23-.6-6.42-1.52-9.52-2.61-8.98-3.16-16.38-8.63-22.36-15.98-2.63-3.22-4.93-6.71-6.35-10.67-.39-1.08-.37-2.37-.23-3.53.05-.46.89-.98,1.47-1.18.59-.2,1.31-.05,1.97-.05,30.72-.02,61.45-.07,92.17-.03,2.64,0,5.37.18,7.69,1.83.25.18.63.28.94.25,1.88-.21,3.45.62,5.04,1.4.15.07.31.21.45.19,2.38-.35,3.93,1.44,5.75,2.39,2.39,1.25,4.6,2.89,6.81,4.47,1.71,1.22,3.41,2.48,4.91,3.94,1.79,1.74,3.37,3.71,5.03,5.59.23.26.4.56.6.84l.48-.19Z"/>
  <path class="cls-2" d="M330.99,237.6c-.5-.43-.83-.66-1.08-.95-3.05-3.46-6.49-6.52-10.26-9.12-3.38-2.33-7.04-4.28-10.65-6.26-3.45-1.89-7.19-3.03-10.98-4.04-1.5-.4-2.95-1.01-4.42-1.52-.12-.04-.23-.11-.35-.12-2.68-.33-5.37-.56-8.03-1-9.45-1.53-18.95-.48-28.42-.67-9.47-.19-18.94-.04-28.41-.04-9.51,0-19.02,0-28.53,0-25.76,0-51.53.01-77.29-.06-2.11,0-4.22-.61-6.34-.94-2.68-.41-5.37-.75-8.02-1.27-1.69-.33-3.33-.91-4.98-1.4-1.6-.48-3.21-.92-4.77-1.49-1.85-.67-3.68-1.41-5.48-2.19-2.3-1-4.62-1.98-6.85-3.13-4.11-2.12-7.92-4.7-11.65-7.48-6.25-4.65-11.53-10.18-15.82-16.61-2.55-3.83-4.69-7.96-6.77-12.07-1.27-2.52-2.12-5.26-3.07-7.93-.09-.24.42-.91.77-1.05.46-.18,1.06-.03,1.59-.03,8.39,0,16.79,0,25.18.02,10.38.02,20.76.06,31.14.08,7.61.01,15.22.01,22.82,0,8.15-.01,16.29-.07,24.44-.08,10.79-.01,21.58,0,32.38,0,10.29,0,20.59,0,30.88,0,11.08,0,22.16-.09,33.24.03,3.57.04,7.15.58,10.71.99,2.49.29,4.99.67,7.44,1.2,1.71.37,3.36,1.06,5.03,1.62,2.03.68,4.09,1.26,6.06,2.07,8.17,3.38,15.91,7.6,22.59,13.42,7.43,6.46,14.02,13.71,18.67,22.49,1.73,3.27,3.4,6.61,4.67,10.08,1.31,3.58,2.03,7.37,3.13,11.02,1.53,5.06,1.52,10.25,1.57,15.45,0,.2-.06.4-.15.94Z"/>
</svg>