<?xml version="1.0" encoding="UTF-8"?>
<svg id="Layer_1" data-name="Layer 1" xmlns="http://www.w3.org/2000/svg" xmlns:xlink="http://www.w3.org/1999/xlink" viewBox="0 0 1024 768">
  <defs>
    <style>
      .cls-1 {
        fill: #fff;
      }

      .cls-2 {
        fill: none;
      }

      .cls-3 {
        fill: #f1763b;
      }

      .cls-4 {
        fill: #16354a;
      }

      .cls-5 {
        fill: #414444;
      }

      .cls-6 {
        clip-path: url(#clippath);
      }
    </style>
    <clipPath id="clippath">
      <rect class="cls-2" x="52.65" y="463.94" width="483.42" height="6.25"/>
    </clipPath>
  </defs>
  <path class="cls-4" d="M479.69,340.22l-6.55,67.95c-10.03,6.45-23.97,10.28-36.37,10.28-29.68,0-46.4-22.18-46.4-61.3,0-47.99,24.94-80.25,61.87-80.25,12.12,0,22.16,3.43,29.26,6.45l-8.22,37.5c-5.02-2.42-11.56-4.84-19.65-4.84-21.04,0-28.01,16.74-28.01,35.29,0,20.57,8.5,28.03,17,28.03,1.39,0,2.37-.2,3.35-.4l3.76-38.71h29.96Z"/>
  <path class="cls-4" d="M589.07,279.52l-13.24,136.31h-34.28l4.88-50.61h-22.29l-4.88,50.61h-34.28l13.24-136.31h34.28l-4.74,49h22.29l4.74-49h34.28Z"/>
  <path class="cls-4" d="M668.91,367.64c0,32.87-17.84,50.81-45.56,50.81-13.38,0-25.5-4.23-34.7-10.28l9.06-37.91c6.41,5.24,15.61,11.09,27.31,11.09,7.8,0,9.06-2.62,9.06-4.64,0-11.29-37.34-.2-37.34-46.58,0-31.05,16.86-53.23,44.03-53.23,10.45,0,22.85,3.23,32.61,7.86l-9.06,37.71c-5.43-4.03-15.47-8.07-25.08-8.07-4.88,0-8.5,1.01-8.5,4.64,0,11.9,38.18.61,38.18,48.6Z"/>
  <path class="cls-4" d="M826.36,279.52l-33.16,136.31h-42.22l-3.2-76.62-18.11,76.62h-41.8l-6.69-136.31h34.14v92.75l22.43-92.75h31.63l4.46,92.75,18.25-92.75h34.28Z"/>
  <path class="cls-4" d="M911.07,415.83h-34.55l-1.81-22.79h-26.47l-6.13,22.79h-34.7l44.45-136.31h41.11l18.11,136.31ZM857.01,361.19h15.05l-3.48-41.94-11.56,41.94Z"/>
  <path class="cls-4" d="M986.45,365.62c8.5,18.75,16.72,16.13,22.57,16.13l-3.06,32.67c-5.02,2.22-10.87,4.03-18.95,4.03-13.52,0-20.62-10.28-30.79-45.37-.56.2-1.11.2-1.67.2l-4.18,42.55h-33.3l13.1-134.9c7.8-2.02,22.99-4.03,34.83-4.03,23.83,0,46.68,8.47,46.68,41.34,0,27.62-11.15,40.53-25.22,47.39ZM977.54,325.7c0-9.88-7.94-12.1-13.52-12.1-1.53,0-2.93.2-3.9.4l-2.65,27.22c.84.2,1.81.2,2.93.2,5.99,0,17.14-2.22,17.14-15.73Z"/>
  <path class="cls-4" d="M319.12,278.8c-.03.48-.2.7-.54.91-1.41.88-2.84,1.75-4.18,2.73-1.46,1.07-2.9,2.18-4.14,3.52-.7.75-1.44,1.47-2.17,2.18-1.31,1.26-2.38,2.72-3.48,4.16-1.64,2.15-2.95,4.48-4.22,6.84-.53.99-.97,2.04-1.42,3.07-.37.85-.74,1.71-1.05,2.58-.22.63-.36,1.28-.53,1.93-.03.11-.02.24-.07.34-.81,1.64-1.04,3.46-1.36,5.22-.27,1.45-.53,2.92-.51,4.44.02,1.19-.23,2.38-.36,3.57-.05.43-.12.87-.12,1.3,0,6.45,0,12.9,0,19.35,0,.41,0,.82,0,1.23-.02.99-.17,1.07-1.07.75-1.1-.39-2.19-.82-3.32-1.06-1.19-.25-2.43-.38-3.65-.39-4.52-.04-9.03-.02-13.55,0-.64,0-1.28.11-1.92.16-1.7.14-3.28.74-4.89,1.23-.3.09-.54.35-.83.47-1.35.56-2.62,1.25-3.67,2.31-1.51,1.52-3.08,2.98-4.52,4.56-1.07,1.18-2.11,2.42-2.8,3.89-.11.24-.29.44-.43.66-.66,1.02-1.32,2.05-1.99,3.07-.16.24-.35.47-.52.71-.94,1.34-1.89,2.67-2.81,4.03-.77,1.14-1.49,2.3-2.24,3.45-.32.48-.68.94-1.01,1.42-.75,1.08-1.51,2.15-2.25,3.24-.65.97-1.27,1.96-1.92,2.93-.47.7-.97,1.39-1.45,2.08-.92,1.32-1.87,2.62-2.75,3.96-.9,1.37-1.7,2.8-2.6,4.16-.95,1.44-1.99,2.81-2.96,4.24-.94,1.38-1.82,2.79-2.75,4.17-.64.94-1.33,1.85-1.97,2.79-.38.55-.73,1.13-1.09,1.69-1.13,1.74-2.26,3.47-3.4,5.2-.32.49-.68.95-1.01,1.42-1.27,1.82-2.55,3.64-3.81,5.47-.51.75-.99,1.52-1.49,2.27-.63.95-1.26,1.89-1.89,2.83-.96,1.43-1.93,2.85-2.9,4.28-1.09,1.59-2.17,3.19-3.27,4.77-.28.41-.57.42-.9-.03-.43-.59-.83-1.21-1.2-1.84-.67-1.17-1.5-2.23-2.3-3.32-1.1-1.51-2.08-3.11-3.13-4.66-.9-1.33-1.85-2.63-2.75-3.96-.39-.58-.71-1.21-1.09-1.8-.5-.76-1.03-1.49-1.54-2.25-.8-1.19-1.59-2.38-2.39-3.57-.44-.66-.87-1.32-1.32-1.97-.78-1.13-1.59-2.24-2.36-3.38-.69-1.02-1.32-2.08-2-3.1-.79-1.19-1.62-2.37-2.41-3.56-.55-.83-1.06-1.68-1.59-2.52-.22-.35-.44-.69-.67-1.03-.97-1.4-1.96-2.77-2.91-4.19-1.2-1.8-2.36-3.63-3.55-5.44-.7-1.07-1.43-2.13-2.15-3.2-1.16-1.73-2.3-3.47-3.47-5.18-.92-1.35-1.91-2.66-2.83-4.02-1.06-1.58-2.06-3.2-3.11-4.79-1.63-2.46-3.28-4.92-4.95-7.36-1.14-1.66-2.33-3.29-3.51-4.93-.09-.13-.24-.23-.36-.33-.42.23-.33.58-.33.88,0,11.73,0,23.46-.01,35.19,0,1.47,0,2.93,0,4.4,0,.82-.08.91-.91.91-1.64.01-3.28,0-4.93,0-9.21,0-18.42.01-27.62.02-.18,0-.35,0-.53,0-.43,0-.65-.21-.66-.64,0-.21,0-.41,0-.62,0-21.2,0-42.4-.03-63.6,0-2.34-.01-4.7-.27-7.03-.2-1.82-.31-3.67-.9-5.45-.37-1.11-.54-2.28-.89-3.39-.43-1.4-.95-2.76-1.42-4.15-.77-2.28-1.94-4.38-3.13-6.46-1.11-1.93-2.39-3.74-3.8-5.48-2.02-2.49-4.22-4.8-6.59-6.95-1.69-1.53-3.54-2.88-5.52-4.03-.59-.34-1.15-.75-1.73-1.12.24-.46.56-.34.83-.34,2.14,0,4.28,0,6.42,0,11.03,0,22.05-.01,33.08.05,1.63,0,3.29.23,4.87.61,1.86.44,3.72.98,5.46,1.85,1.83.92,3.64,1.91,5.2,3.24,2.19,1.86,4.28,3.85,6,6.17,1.13,1.53,2.1,3.17,3.15,4.75,1.28,1.93,2.56,3.85,3.85,5.77,1.57,2.36,3.15,4.72,4.72,7.08,1.23,1.85,2.47,3.69,3.69,5.55,1.32,2,2.6,4.02,3.92,6.02.68,1.03,1.4,2.02,2.09,3.03.62.92,1.21,1.86,1.83,2.78,1.5,2.27,3,4.54,4.5,6.81,1.22,1.86,2.43,3.72,3.67,5.57,1.02,1.53,2.09,3.03,3.12,4.55,1.67,2.47,3.31,4.96,4.98,7.44.99,1.48,2.01,2.93,3.02,4.4,1.33,1.95,2.68,3.9,3.99,5.86.64.95,1.2,1.94,1.85,2.88.99,1.42,1.27,1.39,2.2-.02.7-1.07,1.48-2.09,2.2-3.15.72-1.07,1.4-2.16,2.11-3.23.64-.98,1.29-1.95,1.93-2.92,1.21-1.86,2.41-3.73,3.63-5.59.56-.86,1.16-1.69,1.72-2.54,1.21-1.82,2.41-3.65,3.63-5.47.87-1.28,1.78-2.53,2.65-3.81.68-.99,1.32-2,1.98-3,.42-.63.87-1.25,1.28-1.89.76-1.18,1.48-2.38,2.24-3.56.36-.57.76-1.11,1.15-1.66,1.04-1.49,2.09-2.96,3.1-4.46.7-1.04,1.33-2.13,2-3.18,1.03-1.6,2.13-3.14,3.24-4.68.75-1.04,1.35-2.18,2.06-3.25.67-1.02,1.4-2,2.09-3.01.21-.31.39-.65.59-.97.59-.94,1.16-1.89,1.77-2.81.5-.75,1.07-1.46,1.56-2.21,1.19-1.84,2.35-3.7,3.54-5.54.24-.37.58-.67.82-1.03.76-1.14,1.46-2.31,2.25-3.43.79-1.12,1.56-2.28,2.51-3.26,1.51-1.59,3.08-3.15,4.78-4.53,1.19-.96,2.5-1.83,3.95-2.42,1.16-.47,2.27-1.04,3.42-1.55.24-.1.5-.19.76-.19.48,0,.91-.11,1.34-.35.27-.15.61-.18.92-.22,1.13-.14,2.27-.26,3.4-.38.32-.03.64-.05.96-.05,13.17,0,26.33,0,39.5,0,.37,0,.74.05,1.13.07Z"/>
  <path class="cls-4" d="M381.51,317.21c2.72-13.64,9.25-26.45,19.33-38.47h-82.73s.07,0,.11,0h.9v.07c-.03.48-.2.7-.54.91-1.41.87-2.84,1.74-4.18,2.73-1.46,1.07-2.89,2.18-4.14,3.52-.69.75-1.43,1.46-2.16,2.18-1.32,1.25-2.39,2.72-3.48,4.16-.29.39-.57.78-.84,1.18v56.52c.43.47.86.94,1.26,1.43.97,1.18,1.89,2.39,2.82,3.6.39.51.78,1.02,1.17,1.53.15.2.31.39.47.59.38.47.76.95,1.12,1.44.38.53.74,1.07,1.11,1.6.33.49.67.99,1.02,1.47.69.95,1.4,1.89,2.1,2.83l1.88,2.48c.65.86,1.3,1.72,1.94,2.58.83,1.11,1.65,2.23,2.47,3.34.77,1.05,1.55,2.1,2.33,3.15.24.33.5.66.76.98.5.64,1.01,1.29,1.47,1.95.39.56.79,1.12,1.19,1.68,1.48,2.08,3.02,4.23,4.31,6.74.64,1.25,1.08,2.46,1.47,3.53l.07.21c1,2.78,1,5.47,1,7.26v3.62c0,4.53,0,9.06-.01,13.58h63.27c-11.43-9.71-17.24-22.15-15.46-38.27h-42.36v-12.55h37.06v-35.64h-37.06v-11.95h42.36Z"/>
  <path class="cls-3" d="M260.53,422.65c-.15-.42-.27-.67-.31-.93-.05-.26-.02-.53-.02-.79-.02-20.32-.03-40.64-.04-60.97,0-.82.22-1.6.45-2.39.4-1.35,1.12-2.53,1.7-3.79.06-.13.14-.26.24-.36,1.07-1,2.16-1.97,3.21-2.98.94-.9,2.2-1.13,3.31-1.68.97-.47,2.05-.37,3.02-.79.33-.14.75-.07,1.13-.07,4.43.02,8.85.05,13.28.08.64,0,1.28-.01,1.9.26.3.13.69.07,1.04.09.29.02.66-.07.86.08.76.56,1.71.54,2.51.94.78.39,1.6.71,2.33,1.18.95.63,1.88,1.31,2.71,2.08.99.91,1.92,1.89,2.77,2.93,1.34,1.62,2.59,3.31,3.89,4.97.48.62,1,1.22,1.46,1.86.73,1.01,1.41,2.07,2.14,3.08.95,1.3,1.93,2.58,2.9,3.86,1.02,1.35,2.06,2.7,3.07,4.06,1.61,2.15,3.2,4.32,4.8,6.47.7.93,1.46,1.82,2.12,2.78,1.77,2.53,3.68,4.98,5.1,7.74.51.98.87,2.01,1.25,3.05.63,1.73.66,3.49.66,5.28,0,8.03,0,16.07-.02,24.1,0,.96-.06,1.94-.21,2.89-.09.59-.35,1.17-.62,1.71-.44.89-.88,1.79-1.63,2.48-.37.34-.72.69-1.06,1.06-1.22,1.33-2.78,2.11-4.43,2.73-.27.1-.57.13-.85.18-.23.04-.48.01-.7.09-2.24.8-4.58.48-6.88.54-.72.02-.93-.24-.98-.95-.07-.9-.13-1.81-.22-2.71-.02-.23-.1-.46-.14-.69-.09-.48-.24-.96-.27-1.45-.03-.53-.11-1.01-.38-1.5-.29-.52-.37-1.15-.59-1.71-.36-.89-.68-1.8-1.17-2.62-1.06-1.77-2.01-3.63-3.62-5.02-.86-.75-1.63-1.6-2.44-2.41-.98-.98-2.05-1.83-3.31-2.42-.08-.04-.15-.1-.22-.14-.91-.58-1.79-1.19-2.74-1.71-.58-.32-1.24-.5-1.87-.72-.79-.27-1.59-.51-2.39-.76-.31-.1-.62-.22-.94-.24-.6-.04-1.14-.18-1.68-.44-.25-.12-.57-.15-.85-.15-2.35,0-4.69-.02-7.04.01-.46,0-.92.15-1.37.26-1.07.26-2.16.49-3.21.81-.75.23-1.43.67-2.18.86-1.38.35-2.44,1.33-3.76,1.81-.36.13-.61.55-.95.76-2.04,1.22-3.57,3.01-5.19,4.69-.94.98-1.64,2.19-2.47,3.28-.31.41-.67.79-1.13,1.33ZM291.62,386.2c5.63,0,11.26,0,16.88,0,.32,0,.65.01.96-.05.58-.11.7-.45.35-.93-.41-.56-.84-1.11-1.24-1.68-.79-1.12-1.55-2.25-2.34-3.36-.3-.43-.68-.81-.98-1.24-.65-.93-1.23-1.9-1.91-2.81-1.28-1.73-2.62-3.42-3.92-5.14-1.04-1.37-2.08-2.75-3.09-4.14-.86-1.18-1.68-2.38-2.52-3.57-.4-.57-.79-1.15-1.21-1.7-.63-.83-1.36-1.31-2.51-1.3-5.07.06-10.14.03-15.21.03-1.72,0-1.81.09-1.81,1.85,0,7.39,0,14.77,0,22.16,0,.23,0,.47,0,.7.04.75.38,1.11,1.14,1.17.29.02.59.01.88.01,5.51,0,11.02,0,16.53,0Z"/>
  <path d="M93.71,414.23c-.49-.19-.82-.32-1.23-.48.78-.4.82-.39,1.23.48Z"/>
  <path class="cls-3" d="M126.08,395.06c9.53,0,19.06,0,28.59,0,.18,0,.35,0,.53,0,.56.03.84.3.85.85,0,.6,0,1.2,0,1.8,0,5.45-.02,10.91.02,16.36,0,.94-.83,1.82-1.77,1.74-.93-.08-1.88-.03-2.81,0-.41.01-.72-.13-1.03-.39-.66-.57-1.34-1.14-2.03-1.67-.4-.31-.85-.56-1.29-.82-.77-.45-1.55-.88-2.33-1.31-.19-.1-.4-.17-.61-.24-.14-.05-.29-.06-.42-.12-.65-.29-1.27-.65-1.94-.88-.72-.25-1.49-.38-2.24-.56-.18-.05-.38-.07-.54-.17-.57-.35-1.2-.44-1.86-.44-1.96,0-3.93-.06-5.89.02-.89.03-1.77.32-2.65.5-.03,0-.05.04-.08.03-.85-.06-1.59.33-2.36.58-.75.24-1.5.48-2.22.79-.84.36-1.65.78-2.47,1.19-.34.17-.66.37-.98.58-.71.46-1.42.91-2.12,1.4-.36.25-.64.6-1.01.84-.26.18-.59.35-.9.35-5.44.02-10.88.02-16.32,0-1.14,0-2.29-.01-3.42-.17-.65-.09-1.27-.48-1.9-.75-.4-.17-.77-.4-1.18-.56-.97-.37-1.61-1.16-2.31-1.85-.47-.46-.89-.97-1.29-1.49-.23-.31-.34-.7-.54-1.04-.68-1.2-1.25-2.42-1.16-3.86.04-.58,0-1.17,0-1.76,0-.6.08-1.16.31-1.74.57-1.49,1.41-2.78,2.57-3.86.65-.61,1.27-1.26,1.97-1.81.67-.52,1.44-.89,2.31-1.02.18-.03.39-.09.53-.2.44-.34.95-.34,1.46-.34,9.5,0,19,0,28.5,0h0Z"/>
  <path class="cls-1" d="M147.05,427.46c-10.24-16.64-36.78-.47-25.73,16.34,4.05,6.16,12.93,8.57,19.53,5.29.2-.1.4-.2.59-.31,7.12-4,9.91-14.32,5.61-21.32Z"/>
  <path class="cls-4" d="M153.9,435.62c.44,12.51-11.91,22.13-24.02,19.73-9.24-1.83-16.19-10.14-15.93-19.55.23-8.28,5.41-16.22,13.27-19.14,8.64-3.2,18.49.54,23.39,8.2,1.99,3.1,3.14,6.92,3.28,10.75ZM119.61,435.64c-.04,7.45,6.44,14.02,13.98,14.14,7.46.12,14.06-6.35,14.28-13.61.27-8.59-6.45-14.72-13.9-14.83-7.91-.11-14.3,6.16-14.36,14.29Z"/>
  <path class="cls-3" d="M133.88,426.79c-4.82,0-8.72,3.9-8.72,8.72s3.9,8.72,8.72,8.72,8.72-3.9,8.72-8.72-3.9-8.72-8.72-8.72ZM131.04,437.37c-2.38-3.61,3.33-7.08,5.53-3.51.93,1.5.33,3.72-1.2,4.58-.04.02-.08.05-.13.07-1.42.7-3.33.19-4.2-1.14Z"/>
  <path class="cls-1" d="M297.3,427.04c-10.24-16.64-36.78-.47-25.73,16.34,4.05,6.16,12.93,8.57,19.53,5.29.2-.1.4-.2.59-.31,7.12-4,9.91-14.32,5.61-21.32Z"/>
  <path class="cls-4" d="M304.15,435.2c.44,12.51-11.91,22.13-24.02,19.73-9.24-1.83-16.19-10.14-15.93-19.55.23-8.28,5.41-16.22,13.27-19.14,8.64-3.2,18.49.54,23.39,8.2,1.99,3.1,3.14,6.92,3.28,10.75ZM269.86,435.22c-.04,7.45,6.44,14.02,13.98,14.14,7.46.12,14.06-6.35,14.28-13.61.27-8.59-6.45-14.72-13.9-14.83-7.91-.11-14.3,6.16-14.36,14.29Z"/>
  <path class="cls-3" d="M284.13,426.37c-4.82,0-8.72,3.9-8.72,8.72s3.9,8.72,8.72,8.72,8.72-3.9,8.72-8.72-3.9-8.72-8.72-8.72ZM281.29,436.95c-2.38-3.61,3.33-7.08,5.53-3.51.93,1.5.33,3.72-1.2,4.58-.04.02-.08.05-.13.07-1.42.7-3.33.19-4.2-1.14Z"/>
  <path class="cls-3" d="M101.94,341.16c-.04-.19-.06-.38-.13-.55-.26-.73-.5-1.47-.8-2.18-.16-.38-.4-.74-.66-1.07-.56-.71-1.13-1.42-1.73-2.09-.53-.59-1.08-1.16-1.69-1.67-.48-.41-1.06-.71-1.59-1.06-.6-.39-1.18-.79-1.79-1.16-.48-.29-.98-.53-1.47-.78-.1-.05-.23-.07-.34-.07-.63.01-1.19-.21-1.74-.51-.15-.08-.33-.11-.5-.13-1.01-.12-2.03-.23-3.05-.33-.22-.02-.44-.05-.66-.05-10.03,0-20.06,0-30.08-.01-1.52-.5-3.11-.06-4.64-.37-1.51-.3-3.01-.64-4.42-1.28-.29-.13-.62-.15-.92-.27-1.01-.4-2.04-.78-3.02-1.25-.8-.38-1.55-.86-2.31-1.32-.7-.42-1.4-.84-2.04-1.34-1.22-.95-2.46-1.9-3.45-3.1-.74-.9-1.52-1.78-2.2-2.74-.62-.88-1.11-1.85-1.66-2.79-.02-.04-.02-.09-.05-.12-.64-.6-.7-1.48-1.07-2.22-.34-.66-.14-1.53.88-1.52,20.54,0,41.08,0,61.62,0,.81,0,1.62-.12,2.43.21.41.17.92.18,1.38.16.75-.04,1.4.26,2.08.44.32.09.67.1.99.2.55.16,1.09.36,1.64.54.44.14.91.22,1.32.43,1.11.58,2.19,1.22,3.29,1.84,1.83,1.03,3.23,2.56,4.64,4.07.62.66,1.06,1.5,1.55,2.28.73,1.17,1.08,2.44,1.08,3.83,0,11.7,0,23.4-.01,35.1,0,.64-.02.66-.67.66-3.01,0-6.01-.01-9.02,0-.42,0-.65-.06-.76-.54-.23-.98-.51-1.95-.87-2.89-.3-.77-.78-1.47-1.15-2.21-1.22-2.42-3.2-4.15-5.27-5.8-.95-.76-2.06-1.2-3.15-1.68-.8-.35-1.62-.63-2.44-.94-.08-.03-.16-.07-.25-.08-1.06-.11-2.12-.31-3.17-.32-4.57-.06-9.15-.04-13.72-.12-1.34-.02-2.68-.22-4-.46-1.14-.21-2.28-.54-3.38-.92-3.18-1.12-5.81-3.06-7.93-5.66-.93-1.14-1.75-2.38-2.25-3.78-.14-.38-.13-.84-.08-1.25.02-.16.31-.35.52-.42.21-.07.46-.02.7-.02,10.89,0,21.79-.02,32.68-.01.94,0,1.9.06,2.73.65.09.06.22.1.33.09.67-.07,1.22.22,1.79.5.05.03.11.08.16.07.85-.12,1.39.51,2.04.85.85.44,1.63,1.03,2.41,1.59.6.43,1.21.88,1.74,1.4.64.62,1.19,1.32,1.78,1.98.08.09.14.2.21.3l.17-.07Z"/>
  <path class="cls-3" d="M112.38,315.28c-.18-.15-.29-.23-.38-.34-1.08-1.23-2.3-2.31-3.64-3.23-1.2-.83-2.5-1.52-3.78-2.22-1.22-.67-2.55-1.08-3.89-1.43-.53-.14-1.05-.36-1.57-.54-.04-.01-.08-.04-.12-.04-.95-.12-1.9-.2-2.85-.35-3.35-.54-6.72-.17-10.08-.24-3.36-.07-6.71-.01-10.07-.01-3.37,0-6.74,0-10.12,0-9.13,0-18.27,0-27.4-.02-.75,0-1.5-.22-2.25-.33-.95-.15-1.9-.27-2.84-.45-.6-.12-1.18-.32-1.77-.5-.57-.17-1.14-.33-1.69-.53-.66-.24-1.3-.5-1.94-.78-.82-.35-1.64-.7-2.43-1.11-1.46-.75-2.81-1.67-4.13-2.65-2.21-1.65-4.09-3.61-5.61-5.89-.9-1.36-1.66-2.82-2.4-4.28-.45-.89-.75-1.86-1.09-2.81-.03-.09.15-.32.27-.37.16-.06.37,0,.56,0,2.98,0,5.95,0,8.93,0,3.68,0,7.36.02,11.04.03,2.7,0,5.39,0,8.09,0,2.89,0,5.78-.02,8.66-.03,3.83,0,7.65,0,11.48,0,3.65,0,7.3,0,10.95,0,3.93,0,7.86-.03,11.79.01,1.27.01,2.53.2,3.8.35.88.1,1.77.24,2.64.43.61.13,1.19.38,1.78.57.72.24,1.45.45,2.15.73,2.9,1.2,5.64,2.7,8.01,4.76,2.63,2.29,4.97,4.86,6.62,7.98.61,1.16,1.21,2.34,1.65,3.57.46,1.27.72,2.61,1.11,3.91.54,1.79.54,3.64.56,5.48,0,.07-.02.14-.05.33Z"/>
  <g>
    <path class="cls-4" d="M982.17,472.82l-3.68,17.16h-5.68l9.04-42.35h5.68l-1.24,5.74c5.52-4.7,12.63-7.07,19.86-6.73l-.98,5.17c-12.47,0-20.21,6.98-22.97,21h-.03Z"/>
    <path class="cls-4" d="M610.75,445.41c-3.78-6.73-11.23-10.47-18.88-9.52-7.39-.22-14.66,2.06-20.59,6.47-5.93,4.47-9.93,11.01-11.23,18.3-.54,2.09-.82,4.25-.82,6.41-.35,5.36,1.97,10.53,6.15,13.86,4.38,3.11,9.68,4.63,15.01,4.35,8.72.19,17.16-3.24,23.32-9.45l4.09,3.05c-7.39,7.74-17.7,12.06-28.39,11.9-7.99.63-15.83-2.38-21.35-8.22-3.24-3.93-4.92-8.88-4.76-13.96.25-11.61,5.62-22.52,14.62-29.88,7.17-5.55,16.05-8.44,25.13-8.22,9.42-1.11,18.59,3.49,23.32,11.74l-5.58,3.11-.03.06Z"/>
    <path class="cls-4" d="M680.13,484.81c-2.7,2.38-5.87,4.19-9.26,5.33-2.95.63-5.93.92-8.95.82-4.79.25-9.55-1.21-13.39-4.09-3.74-3.01-5.81-7.68-5.49-12.47,0-1.87.25-3.74.67-5.58,1.14-6.47,4.6-12.31,9.77-16.4,5.11-4.03,11.48-6.12,17.99-6,4.85-.25,9.64,1.21,13.55,4.09,3.74,3.05,5.81,7.74,5.49,12.56-.19,8.31-3.97,16.15-10.34,21.51v.25l-.03-.03ZM682.19,456.48c-1.27-1.87-3.11-3.27-5.27-4.03-2.16-.54-4.35-.76-6.57-.67-4.98-.13-9.83,1.49-13.7,4.6-4.92,4.06-7.9,10.02-8.22,16.4-.22,3.62,1.27,7.11,4.03,9.45,2.92,2.22,6.54,3.33,10.18,3.11,10.22.32,19.16-6.85,21.1-16.91.32-1.49.48-2.98.51-4.5.13-2.63-.57-5.27-2.06-7.46Z"/>
    <path class="cls-4" d="M753,490.08l.98-4.6c-4.63,3.78-10.47,5.71-16.4,5.49-3.78.16-7.49-.76-10.75-2.63-3.17-2.03-5.01-5.58-4.85-9.36,0-1.36.19-2.7.51-4.03l5.74-27.25h5.74l-5.84,27.16c-.1,1.02-.1,2.03,0,3.05,0,5.17,3.62,8.22,10.85,8.22,4.35.19,8.63-1.24,11.99-4.03,3.24-2.95,5.42-6.85,6.25-11.17l4.85-22.81h5.74l-9.04,42.35-5.74-.41-.03.03Z"/>
    <path class="cls-4" d="M805.12,472.82l-3.52,17.16h-5.68l8.95-42.35h5.74l-1.24,5.74c5.52-4.7,12.63-7.11,19.86-6.73l-1.08,5.17c-12.4,0-20.11,6.98-23.06,21h.03Z"/>
    <path class="cls-4" d="M853.97,489.98l9.2-43.33h5.74l-9.2,43.33h-5.74ZM867.11,440.75c-1.24,0-1.97-.67-2.28-2.13l1.4-6.25c.6-1.21,1.78-2.06,3.11-2.22.89,0,1.81.67,2.63,1.97l-1.4,6.73c-.79,1.11-1.97,1.87-3.3,2.13l-.16-.25v.03Z"/>
    <path class="cls-4" d="M903.37,471.01c-.06,1.05-.06,2.09,0,3.11,0,7.71,4.6,11.58,13.8,11.58,7.36.25,14.24-3.52,17.99-9.83h6c-4.63,9.68-14.56,15.64-25.28,15.2-4.63.29-9.23-1.02-13.04-3.68-3.62-2.89-5.62-7.36-5.27-11.99,0-2.16.29-4.31.82-6.41,1.14-6.44,4.54-12.28,9.61-16.4,4.95-4.09,11.23-6.28,17.64-6.15,4.66-.19,9.3,1.05,13.23,3.62,3.74,2.76,5.87,7.23,5.58,11.9,0,1.74-.19,3.49-.57,5.17l-.67,3.62-39.81.32-.03-.03ZM924.72,451.82c-8.98-.29-17.1,5.39-19.86,13.96h32.83c.1-.73.1-1.49,0-2.22.22-3.39-1.21-6.73-3.87-8.85-2.66-1.9-5.84-2.92-9.1-2.89Z"/>
  </g>
  <g>
    <rect class="cls-5" x="52.65" y="463.94" width="483.42" height="6.25"/>
    <g class="cls-6">
      <g>
        <rect class="cls-5" x="52.65" y="463.94" width="2.08" height="6.25"/>
        <rect class="cls-5" x="54.73" y="463.94" width="2.08" height="6.25"/>
        <rect class="cls-5" x="56.81" y="463.94" width="2.08" height="6.25"/>
        <rect class="cls-5" x="58.89" y="463.94" width="2.08" height="6.25"/>
        <rect class="cls-5" x="60.99" y="463.94" width="2.08" height="6.25"/>
        <rect class="cls-5" x="63.07" y="463.94" width="2.08" height="6.25"/>
        <rect class="cls-5" x="65.15" y="463.94" width="2.08" height="6.25"/>
        <rect class="cls-5" x="67.23" y="463.94" width="2.08" height="6.25"/>
        <rect class="cls-5" x="69.31" y="463.94" width="2.08" height="6.25"/>
        <rect class="cls-5" x="71.39" y="463.94" width="2.08" height="6.25"/>
        <rect class="cls-5" x="73.47" y="463.94" width="2.08" height="6.25"/>
        <rect class="cls-5" x="75.55" y="463.94" width="2.08" height="6.25"/>
        <rect class="cls-5" x="77.66" y="463.94" width="2.08" height="6.25"/>
        <rect class="cls-5" x="79.74" y="463.94" width="2.08" height="6.25"/>
        <rect class="cls-5" x="81.82" y="463.94" width="2.08" height="6.25"/>
        <rect class="cls-5" x="83.9" y="463.94" width="2.08" height="6.25"/>
        <rect class="cls-5" x="85.98" y="463.94" width="2.08" height="6.25"/>
        <rect class="cls-5" x="88.06" y="463.94" width="2.08" height="6.25"/>
        <rect class="cls-5" x="90.14" y="463.94" width="2.08" height="6.25"/>
        <rect class="cls-5" x="92.22" y="463.94" width="2.08" height="6.25"/>
        <rect class="cls-5" x="94.33" y="463.94" width="2.08" height="6.25"/>
        <rect class="cls-5" x="96.41" y="463.94" width="2.08" height="6.25"/>
        <rect class="cls-5" x="98.49" y="463.94" width="2.08" height="6.25"/>
        <rect class="cls-5" x="100.57" y="463.94" width="2.08" height="6.25"/>
        <rect class="cls-5" x="102.65" y="463.94" width="2.08" height="6.25"/>
        <rect class="cls-5" x="104.73" y="463.94" width="2.08" height="6.25"/>
        <rect class="cls-5" x="106.81" y="463.94" width="2.08" height="6.25"/>
        <rect class="cls-5" x="108.89" y="463.94" width="2.08" height="6.25"/>
        <rect class="cls-5" x="111" y="463.94" width="2.08" height="6.25"/>
        <rect class="cls-5" x="113.08" y="463.94" width="2.08" height="6.25"/>
        <rect class="cls-5" x="115.16" y="463.94" width="2.08" height="6.25"/>
        <rect class="cls-5" x="117.24" y="463.94" width="2.08" height="6.25"/>
        <rect class="cls-5" x="119.32" y="463.94" width="2.08" height="6.25"/>
        <rect class="cls-5" x="121.4" y="463.94" width="2.08" height="6.25"/>
        <rect class="cls-5" x="123.48" y="463.94" width="2.08" height="6.25"/>
        <rect class="cls-5" x="125.56" y="463.94" width="2.08" height="6.25"/>
        <rect class="cls-5" x="127.67" y="463.94" width="2.08" height="6.25"/>
        <rect class="cls-5" x="129.75" y="463.94" width="2.08" height="6.25"/>
        <rect class="cls-5" x="131.83" y="463.94" width="2.08" height="6.25"/>
        <rect class="cls-5" x="133.91" y="463.94" width="2.08" height="6.25"/>
        <rect class="cls-5" x="135.99" y="463.94" width="2.08" height="6.25"/>
        <rect class="cls-5" x="138.07" y="463.94" width="2.08" height="6.25"/>
        <rect class="cls-5" x="140.15" y="463.94" width="2.08" height="6.25"/>
        <rect class="cls-5" x="142.23" y="463.94" width="2.08" height="6.25"/>
        <rect class="cls-5" x="144.34" y="463.94" width="2.08" height="6.25"/>
        <rect class="cls-5" x="146.42" y="463.94" width="2.08" height="6.25"/>
        <rect class="cls-5" x="148.5" y="463.94" width="2.08" height="6.25"/>
        <rect class="cls-5" x="150.58" y="463.94" width="2.08" height="6.25"/>
        <rect class="cls-5" x="152.66" y="463.94" width="2.08" height="6.25"/>
        <rect class="cls-5" x="154.74" y="463.94" width="2.08" height="6.25"/>
        <rect class="cls-5" x="156.82" y="463.94" width="2.08" height="6.25"/>
        <rect class="cls-5" x="158.93" y="463.94" width="2.08" height="6.25"/>
        <rect class="cls-5" x="161.01" y="463.94" width="2.08" height="6.25"/>
        <rect class="cls-5" x="163.09" y="463.94" width="2.08" height="6.25"/>
        <rect class="cls-5" x="165.17" y="463.94" width="2.08" height="6.25"/>
        <rect class="cls-5" x="167.25" y="463.94" width="2.08" height="6.25"/>
        <rect class="cls-5" x="169.33" y="463.94" width="2.08" height="6.25"/>
        <rect class="cls-5" x="171.41" y="463.94" width="2.08" height="6.25"/>
        <rect class="cls-5" x="173.49" y="463.94" width="2.08" height="6.25"/>
        <rect class="cls-5" x="175.59" y="463.94" width="2.08" height="6.25"/>
        <rect class="cls-5" x="177.68" y="463.94" width="2.08" height="6.25"/>
        <rect class="cls-5" x="179.76" y="463.94" width="2.08" height="6.25"/>
        <rect class="cls-5" x="181.84" y="463.94" width="2.08" height="6.25"/>
        <rect class="cls-5" x="183.92" y="463.94" width="2.08" height="6.25"/>
        <rect class="cls-5" x="186" y="463.94" width="2.08" height="6.25"/>
        <rect class="cls-5" x="188.08" y="463.94" width="2.08" height="6.25"/>
        <rect class="cls-5" x="190.16" y="463.94" width="2.08" height="6.25"/>
        <rect class="cls-5" x="192.26" y="463.94" width="2.08" height="6.25"/>
        <rect class="cls-5" x="194.34" y="463.94" width="2.08" height="6.25"/>
        <rect class="cls-5" x="196.42" y="463.94" width="2.08" height="6.25"/>
        <rect class="cls-5" x="198.5" y="463.94" width="2.08" height="6.25"/>
        <rect class="cls-5" x="200.58" y="463.94" width="2.08" height="6.25"/>
        <rect class="cls-5" x="202.67" y="463.94" width="2.08" height="6.25"/>
        <rect class="cls-5" x="204.75" y="463.94" width="2.08" height="6.25"/>
        <rect class="cls-5" x="206.83" y="463.94" width="2.08" height="6.25"/>
        <rect class="cls-5" x="208.93" y="463.94" width="2.08" height="6.25"/>
        <rect class="cls-5" x="211.01" y="463.94" width="2.08" height="6.25"/>
        <rect class="cls-5" x="213.09" y="463.94" width="2.08" height="6.25"/>
        <rect class="cls-5" x="215.17" y="463.94" width="2.08" height="6.25"/>
        <rect class="cls-5" x="217.25" y="463.94" width="2.08" height="6.25"/>
        <rect class="cls-5" x="219.33" y="463.94" width="2.08" height="6.25"/>
        <rect class="cls-5" x="221.41" y="463.94" width="2.08" height="6.25"/>
        <rect class="cls-5" x="223.49" y="463.94" width="2.08" height="6.25"/>
        <rect class="cls-5" x="225.6" y="463.94" width="2.08" height="6.25"/>
        <rect class="cls-5" x="227.68" y="463.94" width="2.08" height="6.25"/>
        <rect class="cls-5" x="229.76" y="463.94" width="2.08" height="6.25"/>
        <rect class="cls-5" x="231.84" y="463.94" width="2.08" height="6.25"/>
        <rect class="cls-5" x="233.92" y="463.94" width="2.08" height="6.25"/>
        <rect class="cls-5" x="236" y="463.94" width="2.08" height="6.25"/>
        <rect class="cls-5" x="238.08" y="463.94" width="2.08" height="6.25"/>
        <rect class="cls-5" x="240.16" y="463.94" width="2.08" height="6.25"/>
        <rect class="cls-5" x="242.27" y="463.94" width="2.08" height="6.25"/>
        <rect class="cls-5" x="244.35" y="463.94" width="2.08" height="6.25"/>
        <rect class="cls-5" x="246.43" y="463.94" width="2.08" height="6.25"/>
        <rect class="cls-5" x="248.51" y="463.94" width="2.08" height="6.25"/>
        <rect class="cls-5" x="250.59" y="463.94" width="2.08" height="6.25"/>
        <rect class="cls-5" x="252.67" y="463.94" width="2.08" height="6.25"/>
        <rect class="cls-5" x="254.75" y="463.94" width="2.08" height="6.25"/>
        <rect class="cls-5" x="256.86" y="463.94" width="2.08" height="6.25"/>
        <rect class="cls-5" x="258.94" y="463.94" width="2.08" height="6.25"/>
        <rect class="cls-5" x="261.02" y="463.94" width="2.08" height="6.25"/>
        <rect class="cls-5" x="263.1" y="463.94" width="2.08" height="6.25"/>
        <rect class="cls-5" x="265.18" y="463.94" width="2.08" height="6.25"/>
        <rect class="cls-5" x="267.26" y="463.94" width="2.08" height="6.25"/>
        <rect class="cls-5" x="269.34" y="463.94" width="2.08" height="6.25"/>
        <rect class="cls-5" x="271.42" y="463.94" width="2.08" height="6.25"/>
        <rect class="cls-5" x="273.53" y="463.94" width="2.08" height="6.25"/>
        <rect class="cls-5" x="275.61" y="463.94" width="2.08" height="6.25"/>
        <rect class="cls-5" x="277.69" y="463.94" width="2.08" height="6.25"/>
        <rect class="cls-5" x="279.77" y="463.94" width="2.08" height="6.25"/>
        <rect class="cls-5" x="281.85" y="463.94" width="2.08" height="6.25"/>
        <rect class="cls-5" x="283.93" y="463.94" width="2.08" height="6.25"/>
        <rect class="cls-5" x="286.01" y="463.94" width="2.08" height="6.25"/>
        <rect class="cls-5" x="288.09" y="463.94" width="2.08" height="6.25"/>
        <rect class="cls-5" x="290.2" y="463.94" width="2.08" height="6.25"/>
        <rect class="cls-5" x="292.28" y="463.94" width="2.08" height="6.25"/>
        <rect class="cls-5" x="294.36" y="463.94" width="2.08" height="6.25"/>
        <rect class="cls-5" x="296.44" y="463.94" width="2.08" height="6.25"/>
        <rect class="cls-5" x="298.52" y="463.94" width="2.08" height="6.25"/>
        <rect class="cls-5" x="300.6" y="463.94" width="2.08" height="6.25"/>
        <rect class="cls-5" x="302.68" y="463.94" width="2.08" height="6.25"/>
        <rect class="cls-5" x="304.76" y="463.94" width="2.08" height="6.25"/>
        <rect class="cls-5" x="306.87" y="463.94" width="2.08" height="6.25"/>
        <rect class="cls-5" x="308.95" y="463.94" width="2.08" height="6.25"/>
        <rect class="cls-5" x="311.03" y="463.94" width="2.08" height="6.25"/>
        <rect class="cls-5" x="313.11" y="463.94" width="2.08" height="6.25"/>
        <rect class="cls-5" x="315.19" y="463.94" width="2.08" height="6.25"/>
        <rect class="cls-5" x="317.27" y="463.94" width="2.08" height="6.25"/>
        <rect class="cls-5" x="319.35" y="463.94" width="2.08" height="6.25"/>
        <rect class="cls-5" x="321.43" y="463.94" width="2.08" height="6.25"/>
        <rect class="cls-5" x="323.53" y="463.94" width="2.08" height="6.25"/>
        <rect class="cls-5" x="325.61" y="463.94" width="2.08" height="6.25"/>
        <rect class="cls-5" x="327.7" y="463.94" width="2.08" height="6.25"/>
        <rect class="cls-5" x="329.78" y="463.94" width="2.08" height="6.25"/>
        <rect class="cls-5" x="331.86" y="463.94" width="2.08" height="6.25"/>
        <rect class="cls-5" x="333.94" y="463.94" width="2.08" height="6.25"/>
        <rect class="cls-5" x="336.02" y="463.94" width="2.08" height="6.25"/>
        <rect class="cls-5" x="338.1" y="463.94" width="2.08" height="6.25"/>
        <rect class="cls-5" x="340.2" y="463.94" width="2.08" height="6.25"/>
        <rect class="cls-5" x="342.28" y="463.94" width="2.08" height="6.25"/>
        <rect class="cls-5" x="344.36" y="463.94" width="2.08" height="6.25"/>
        <rect class="cls-5" x="346.44" y="463.94" width="2.08" height="6.25"/>
        <rect class="cls-5" x="348.52" y="463.94" width="2.08" height="6.25"/>
        <rect class="cls-5" x="350.6" y="463.94" width="2.08" height="6.25"/>
        <rect class="cls-5" x="352.69" y="463.94" width="2.08" height="6.25"/>
        <rect class="cls-5" x="354.79" y="463.94" width="2.08" height="6.25"/>
        <rect class="cls-5" x="356.87" y="463.94" width="2.08" height="6.25"/>
        <rect class="cls-5" x="358.95" y="463.94" width="2.08" height="6.25"/>
        <rect class="cls-5" x="361.03" y="463.94" width="2.08" height="6.25"/>
        <rect class="cls-5" x="363.11" y="463.94" width="2.08" height="6.25"/>
        <rect class="cls-5" x="365.19" y="463.94" width="2.08" height="6.25"/>
        <rect class="cls-5" x="367.27" y="463.94" width="2.08" height="6.25"/>
        <rect class="cls-5" x="369.35" y="463.94" width="2.08" height="6.25"/>
        <rect class="cls-5" x="371.46" y="463.94" width="2.08" height="6.25"/>
        <rect class="cls-5" x="373.54" y="463.94" width="2.08" height="6.25"/>
        <rect class="cls-5" x="375.62" y="463.94" width="2.08" height="6.25"/>
        <rect class="cls-5" x="377.7" y="463.94" width="2.08" height="6.25"/>
        <rect class="cls-5" x="379.78" y="463.94" width="2.08" height="6.25"/>
        <rect class="cls-5" x="381.86" y="463.94" width="2.08" height="6.25"/>
        <rect class="cls-5" x="383.94" y="463.94" width="2.08" height="6.25"/>
        <rect class="cls-5" x="386.02" y="463.94" width="2.08" height="6.25"/>
        <rect class="cls-5" x="388.13" y="463.94" width="2.08" height="6.25"/>
        <rect class="cls-5" x="390.21" y="463.94" width="2.08" height="6.25"/>
        <rect class="cls-5" x="392.29" y="463.94" width="2.08" height="6.25"/>
        <rect class="cls-5" x="394.37" y="463.94" width="2.08" height="6.25"/>
        <rect class="cls-5" x="396.45" y="463.94" width="2.08" height="6.25"/>
        <rect class="cls-5" x="398.53" y="463.94" width="2.08" height="6.25"/>
        <rect class="cls-5" x="400.61" y="463.94" width="2.08" height="6.25"/>
        <rect class="cls-5" x="402.69" y="463.94" width="2.08" height="6.25"/>
        <rect class="cls-5" x="404.8" y="463.94" width="2.08" height="6.25"/>
        <rect class="cls-5" x="406.88" y="463.94" width="2.08" height="6.25"/>
        <rect class="cls-5" x="408.96" y="463.94" width="2.08" height="6.25"/>
        <rect class="cls-5" x="411.04" y="463.94" width="2.08" height="6.25"/>
        <rect class="cls-5" x="413.12" y="463.94" width="2.08" height="6.25"/>
        <rect class="cls-5" x="415.2" y="463.94" width="2.08" height="6.25"/>
        <rect class="cls-5" x="417.28" y="463.94" width="2.08" height="6.25"/>
        <rect class="cls-5" x="419.36" y="463.94" width="2.08" height="6.25"/>
        <rect class="cls-5" x="421.47" y="463.94" width="2.08" height="6.25"/>
        <rect class="cls-5" x="423.55" y="463.94" width="2.08" height="6.25"/>
        <rect class="cls-5" x="425.63" y="463.94" width="2.08" height="6.25"/>
        <rect class="cls-5" x="427.71" y="463.94" width="2.08" height="6.25"/>
        <rect class="cls-5" x="429.79" y="463.94" width="2.08" height="6.25"/>
        <rect class="cls-5" x="431.87" y="463.94" width="2.08" height="6.25"/>
        <rect class="cls-5" x="433.95" y="463.94" width="2.08" height="6.25"/>
        <rect class="cls-5" x="436.03" y="463.94" width="2.08" height="6.25"/>
        <rect class="cls-5" x="438.14" y="463.94" width="2.08" height="6.25"/>
        <rect class="cls-5" x="440.22" y="463.94" width="2.08" height="6.25"/>
        <rect class="cls-5" x="442.3" y="463.94" width="2.08" height="6.25"/>
        <rect class="cls-5" x="444.38" y="463.94" width="2.08" height="6.25"/>
        <rect class="cls-5" x="446.46" y="463.94" width="2.08" height="6.25"/>
        <rect class="cls-5" x="448.54" y="463.94" width="2.08" height="6.25"/>
        <rect class="cls-5" x="450.62" y="463.94" width="2.08" height="6.25"/>
        <rect class="cls-5" x="452.7" y="463.94" width="2.08" height="6.25"/>
        <rect class="cls-5" x="454.81" y="463.94" width="2.08" height="6.25"/>
        <rect class="cls-5" x="456.89" y="463.94" width="2.08" height="6.25"/>
        <rect class="cls-5" x="458.97" y="463.94" width="2.08" height="6.25"/>
        <rect class="cls-5" x="461.05" y="463.94" width="2.08" height="6.25"/>
        <rect class="cls-5" x="463.13" y="463.94" width="2.08" height="6.25"/>
        <rect class="cls-5" x="465.21" y="463.94" width="2.08" height="6.25"/>
        <rect class="cls-5" x="467.29" y="463.94" width="2.08" height="6.25"/>
        <rect class="cls-5" x="469.39" y="463.94" width="2.08" height="6.25"/>
        <rect class="cls-5" x="471.47" y="463.94" width="2.08" height="6.25"/>
        <rect class="cls-5" x="473.55" y="463.94" width="2.08" height="6.25"/>
        <rect class="cls-5" x="475.63" y="463.94" width="2.08" height="6.25"/>
        <rect class="cls-5" x="477.72" y="463.94" width="2.08" height="6.25"/>
        <rect class="cls-5" x="479.8" y="463.94" width="2.08" height="6.25"/>
        <rect class="cls-5" x="481.88" y="463.94" width="2.08" height="6.25"/>
        <rect class="cls-5" x="483.96" y="463.94" width="2.08" height="6.25"/>
        <rect class="cls-5" x="486.06" y="463.94" width="2.08" height="6.25"/>
        <rect class="cls-5" x="488.14" y="463.94" width="2.08" height="6.25"/>
        <rect class="cls-5" x="490.22" y="463.94" width="2.08" height="6.25"/>
        <rect class="cls-5" x="492.3" y="463.94" width="2.08" height="6.25"/>
        <rect class="cls-5" x="494.38" y="463.94" width="2.08" height="6.25"/>
        <rect class="cls-5" x="496.46" y="463.94" width="2.08" height="6.25"/>
        <rect class="cls-5" x="498.54" y="463.94" width="2.08" height="6.25"/>
        <rect class="cls-5" x="500.62" y="463.94" width="2.08" height="6.25"/>
        <rect class="cls-5" x="502.73" y="463.94" width="2.08" height="6.25"/>
        <rect class="cls-5" x="504.81" y="463.94" width="2.08" height="6.25"/>
        <rect class="cls-5" x="506.89" y="463.94" width="2.08" height="6.25"/>
        <rect class="cls-5" x="508.97" y="463.94" width="2.08" height="6.25"/>
        <rect class="cls-5" x="511.05" y="463.94" width="2.08" height="6.25"/>
        <rect class="cls-5" x="513.13" y="463.94" width="2.08" height="6.25"/>
        <rect class="cls-5" x="515.21" y="463.94" width="2.08" height="6.25"/>
        <rect class="cls-5" x="517.29" y="463.94" width="2.08" height="6.25"/>
        <rect class="cls-5" x="519.4" y="463.94" width="2.08" height="6.25"/>
        <rect class="cls-5" x="521.48" y="463.94" width="2.08" height="6.25"/>
        <rect class="cls-5" x="523.56" y="463.94" width="2.08" height="6.25"/>
        <rect class="cls-5" x="525.64" y="463.94" width="2.08" height="6.25"/>
        <rect class="cls-5" x="527.72" y="463.94" width="2.08" height="6.25"/>
        <rect class="cls-5" x="529.8" y="463.94" width="2.08" height="6.25"/>
        <rect class="cls-5" x="531.88" y="463.94" width="2.08" height="6.25"/>
        <rect class="cls-5" x="533.96" y="463.94" width="2.08" height="6.25"/>
      </g>
    </g>
  </g>
</svg>